HIERARCHY
ROOT Hips
{
	OFFSET 0.000000 0.000000 0.000000
	CHANNELS 6 Xposition Yposition Zposition Yrotation Xrotation Zrotation
	JOINT Chest
	{
		OFFSET 0.000000 -0.009281 11.569106
		CHANNELS 3 Yrotation Xrotation Zrotation
		JOINT Chest2
		{
			OFFSET -0.000000 0.016865 9.269641
			CHANNELS 3 Yrotation Xrotation Zrotation
			JOINT Chest3
			{
				OFFSET -0.000000 0.000001 8.374491
				CHANNELS 3 Yrotation Xrotation Zrotation
				JOINT Chest4
				{
					OFFSET -0.000000 0.000001 8.374493
					CHANNELS 3 Yrotation Xrotation Zrotation
					JOINT Neck
					{
						OFFSET -0.000000 0.000002 12.152554
						CHANNELS 3 Yrotation Xrotation Zrotation
						JOINT Head
						{
							OFFSET -0.000000 0.040101 7.802319
							CHANNELS 3 Yrotation Xrotation Zrotation
							End Site
							{
								OFFSET -0.000000 0.020947 14.853096
							}
						}
					}
					JOINT RightCollar
					{
						OFFSET 2.894404 0.000001 6.791374
						CHANNELS 3 Yrotation Xrotation Zrotation
						JOINT RightShoulder
						{
							OFFSET 13.574684 0.000001 0.000000
							CHANNELS 3 Yrotation Xrotation Zrotation
							JOINT RightElbow
							{
								OFFSET 23.923903 0.000002 0.000000
								CHANNELS 3 Yrotation Xrotation Zrotation
								JOINT RightWrist
								{
									OFFSET 19.846718 0.012767 0.000000
									CHANNELS 3 Yrotation Xrotation Zrotation
									End Site
									{
										OFFSET 14.973145 0.000001 0.000000
									}
								}
							}
						}
					}
					JOINT LeftCollar
					{
						OFFSET -2.894404 0.000001 6.791374
						CHANNELS 3 Yrotation Xrotation Zrotation
						JOINT LeftShoulder
						{
							OFFSET -13.574684 -0.000001 0.000000
							CHANNELS 3 Yrotation Xrotation Zrotation
							JOINT LeftElbow
							{
								OFFSET -23.923903 -0.000002 0.000000
								CHANNELS 3 Yrotation Xrotation Zrotation
								JOINT LeftWrist
								{
									OFFSET -19.846718 0.012763 0.000000
									CHANNELS 3 Yrotation Xrotation Zrotation
									End Site
									{
										OFFSET -14.973145 -0.000001 0.000000
									}
								}
							}
						}
					}
				}
			}
		}
	}
	JOINT RightHip
	{
		OFFSET 9.469263 0.004643 0.045487
		CHANNELS 3 Yrotation Xrotation Zrotation
		JOINT RightKnee
		{
			OFFSET 0.000000 0.002661 -40.478676
			CHANNELS 3 Yrotation Xrotation Zrotation
			JOINT RightAnkle
			{
				OFFSET 0.000000 0.049106 -35.224068
				CHANNELS 3 Yrotation Xrotation Zrotation
				JOINT RightToe
				{
					OFFSET -0.000001 12.539529 -6.151390
					CHANNELS 3 Yrotation Xrotation Zrotation
					End Site
					{
						OFFSET -0.000001 5.044994 -1.291870
					}
				}
			}
		}
	}
	JOINT LeftHip
	{
		OFFSET -9.469263 0.004641 0.045487
		CHANNELS 3 Yrotation Xrotation Zrotation
		JOINT LeftKnee
		{
			OFFSET 0.000000 0.002661 -40.478676
			CHANNELS 3 Yrotation Xrotation Zrotation
			JOINT LeftAnkle
			{
				OFFSET 0.000000 0.049106 -35.224068
				CHANNELS 3 Yrotation Xrotation Zrotation
				JOINT LeftToe
				{
					OFFSET -0.000001 12.539529 -6.151390
					CHANNELS 3 Yrotation Xrotation Zrotation
					End Site
					{
						OFFSET -0.000001 5.044994 -1.291870
					}
				}
			}
		}
	}
}
MOTION
Frames: 14
Frame Time: 0.016667
9.837360 7.161009 83.203270 -5.194211 -1.706967 -109.756728 -0.464398 -3.091061 0.742750 -0.199866 -1.373088 0.322701 -0.199866 -1.373088 0.322701 -0.149167 -1.029921 0.241569 0.409082 -16.429284 -1.978883 0.052451 5.661832 -3.528945 4.377643 18.514799 -2.533320 44.969607 53.654165 38.747831 47.976365 18.823750 69.038411 -65.229078 29.142631 -8.801828 -6.265128 11.789209 -4.331846 -34.263251 53.421003 -33.344417 -43.286030 23.264939 -65.745598 64.740112 26.543177 10.665083 -0.502293 -6.367018 -3.341347 1.091053 -1.902374 -7.378776 -0.244351 2.219225 4.188335 -0.002539 -0.037196 0.007967 -0.600159 -6.976392 -0.369407 1.125745 -1.060873 1.011216 -1.236066 2.879931 -0.119820 0.011892 -0.018621 -0.006339 
9.837791 7.161227 83.202057 -5.178032 -1.705386 -109.766269 -0.448297 -3.075190 0.733345 -0.192230 -1.365696 0.319220 -0.192230 -1.365696 0.319226 -0.143452 -1.024373 0.238979 0.384865 -16.491553 -1.953094 0.018247 5.546047 -3.488756 4.433002 18.702878 -2.442747 45.351602 54.191616 39.188630 48.907078 18.204022 69.613199 -63.588747 30.487656 -10.035127 -6.298105 11.920937 -4.332418 -34.582607 53.665964 -33.717516 -44.179480 22.636616 -66.955846 63.866387 26.905302 11.911440 -0.495868 -6.357784 -3.360580 1.082492 -1.887589 -7.363135 -0.239289 2.215656 4.215094 -0.001854 -0.037496 0.008039 -0.599067 -6.959604 -0.375225 1.127954 -1.067191 1.007124 -1.233106 2.885641 -0.104128 0.006528 -0.020699 -0.007586 
9.838528 7.164626 83.201080 -5.156461 -1.701848 -109.782068 -0.436040 -3.054024 0.728163 -0.186882 -1.356348 0.317530 -0.186882 -1.356348 0.317530 -0.139450 -1.017358 0.237721 0.370354 -16.565780 -1.929355 0.001605 5.408278 -3.448730 4.476679 18.853673 -2.364166 45.790561 54.619059 39.641342 49.793162 17.718904 70.263973 -61.577325 32.253512 -11.251052 -6.335403 12.013648 -4.383720 -35.099693 54.045327 -34.224165 -44.950062 21.969959 -68.020625 62.757540 27.402553 12.910445 -0.493562 -6.337856 -3.365971 1.079192 -1.879473 -7.358584 -0.234952 2.212052 4.222424 -0.001983 -0.036349 0.007829 -0.601604 -6.936256 -0.375114 1.131518 -1.074594 1.006490 -1.229678 2.891543 -0.092914 0.002878 -0.022175 -0.008078 
9.838703 7.168976 83.200699 -5.133167 -1.695391 -109.800980 -0.429711 -3.035307 0.726340 -0.184478 -1.348112 0.317474 -0.184478 -1.348112 0.317475 -0.137651 -1.011181 0.237687 0.366501 -16.644971 -1.908273 0.003872 5.261528 -3.409813 4.497190 18.962956 -2.342322 46.466774 55.099802 40.239984 50.653151 17.170515 70.805969 -59.419060 34.156905 -12.457203 -6.345884 12.093822 -4.414541 -35.793620 54.485078 -34.819078 -45.568966 21.218223 -68.915680 61.821108 28.220364 13.749380 -0.500959 -6.310354 -3.365676 1.081575 -1.880842 -7.357819 -0.230132 2.210991 4.262024 -0.001203 -0.034450 0.007865 -0.604496 -6.907409 -0.373459 1.129877 -1.087554 1.009032 -1.224975 2.897031 -0.083721 0.001201 -0.020592 -0.008404 
9.839001 7.174072 83.200722 -5.110437 -1.691487 -109.819477 -0.421107 -3.005643 0.719925 -0.180866 -1.335132 0.315149 -0.180866 -1.335132 0.315147 -0.134954 -1.001442 0.235955 0.364725 -16.730791 -1.885022 0.010873 5.102542 -3.366063 4.521088 19.007095 -2.311763 47.301293 55.710633 40.972655 51.419802 16.531481 71.068672 -57.323408 35.991446 -13.471309 -6.350895 12.114788 -4.405417 -36.506767 54.893858 -35.389976 -46.120548 20.466725 -69.752269 61.032057 29.404972 14.432782 -0.502532 -6.279833 -3.351135 1.080901 -1.889404 -7.367610 -0.227274 2.209498 4.294423 0.000815 -0.029912 0.008171 -0.604001 -6.883480 -0.382891 1.124825 -1.092589 1.010857 -1.217605 2.898691 -0.063296 -0.000034 -0.019676 -0.008281 
9.839814 7.179321 83.201057 -5.093384 -1.689229 -109.840671 -0.416504 -2.967581 0.707224 -0.179567 -1.318348 0.309645 -0.179567 -1.318348 0.309641 -0.134002 -0.988852 0.231837 0.370325 -16.814964 -1.858264 0.032671 4.946852 -3.313303 4.586711 19.147858 -2.246585 47.971144 56.306440 41.548007 52.018618 15.912997 71.044725 -54.982005 38.048532 -14.081437 -6.375031 12.128263 -4.408563 -37.131060 55.252450 -35.860170 -46.581849 19.779599 -70.542385 60.122337 30.692080 14.996162 -0.502787 -6.254322 -3.323050 1.076987 -1.899197 -7.377523 -0.223243 2.207201 4.293799 0.002530 -0.025360 0.008607 -0.607248 -6.869058 -0.395923 1.126589 -1.091615 1.027188 -1.216793 2.897122 -0.052287 0.000808 -0.018377 -0.008324 
9.842127 7.185172 83.201195 -5.082504 -1.686731 -109.864132 -0.419792 -2.935359 0.694173 -0.181857 -1.303841 0.303945 -0.181857 -1.303841 0.303940 -0.135739 -0.977971 0.227556 0.391702 -16.885220 -1.835787 0.081789 4.817294 -3.263188 4.680044 19.361643 -2.158521 48.392129 56.759832 41.820111 52.554631 15.380037 71.016988 -52.255629 40.202931 -14.411131 -6.423717 12.193286 -4.411101 -37.676816 55.547077 -36.254781 -46.992217 19.111938 -71.289498 59.370770 32.001212 15.458021 -0.505857 -6.232879 -3.299950 1.074880 -1.913538 -7.383105 -0.218982 2.207512 4.271994 0.002624 -0.021785 0.008144 -0.612729 -6.862845 -0.388569 1.125186 -1.087468 1.043575 -1.213528 2.895022 -0.054544 0.001359 -0.017256 -0.008050 
9.844715 7.189220 83.201042 -5.076508 -1.687009 -109.888748 -0.426785 -2.911393 0.686950 -0.185752 -1.292850 0.300589 -0.185752 -1.292850 0.300589 -0.138672 -0.969730 0.225038 0.423152 -16.940404 -1.824387 0.145269 4.715759 -3.230335 4.739631 19.476640 -2.129558 48.901026 57.142551 42.093039 53.162668 14.874837 71.156153 -49.690914 42.220224 -14.658175 -6.503866 12.247911 -4.495870 -38.156486 55.915962 -36.585878 -47.347763 18.467322 -71.939480 58.744668 33.544657 15.820494 -0.509119 -6.217635 -3.276957 1.071014 -1.928195 -7.385352 -0.213027 2.209236 4.270908 0.003532 -0.019908 0.008291 -0.617537 -6.862498 -0.376819 1.126578 -1.084387 1.055918 -1.211859 2.896258 -0.054522 0.001038 -0.017927 -0.007713 
9.847068 7.192375 83.201027 -5.073360 -1.689636 -109.915844 -0.428154 -2.890342 0.682789 -0.186667 -1.283363 0.299678 -0.186667 -1.283363 0.299678 -0.139365 -0.962614 0.224357 0.447699 -16.986501 -1.821332 0.192805 4.630788 -3.215520 4.704233 19.427742 -2.221987 49.815626 57.580134 42.702343 53.761966 14.407319 71.286459 -46.912990 43.877822 -14.510109 -6.596715 12.250266 -4.607696 -38.761563 56.391073 -36.973832 -47.621083 17.863275 -72.455063 57.923727 35.115153 15.875357 -0.508895 -6.206709 -3.260626 1.066342 -1.940613 -7.380769 -0.209657 2.209976 4.273572 0.004698 -0.018818 0.008227 -0.621759 -6.861510 -0.371795 1.128938 -1.090876 1.061651 -1.208820 2.903390 -0.040126 -0.000429 -0.018589 -0.007753 
9.847458 7.195252 83.201057 -5.071441 -1.695301 -109.945125 -0.416248 -2.866286 0.672725 -0.181425 -1.272803 0.296330 -0.181425 -1.272803 0.296331 -0.135445 -0.954690 0.221866 0.449430 -17.032006 -1.816419 0.198724 4.546409 -3.205260 4.688266 19.426311 -2.265019 50.787917 58.068554 43.375222 54.108175 13.994537 71.182292 -43.707525 45.265535 -13.831429 -6.663466 12.244886 -4.611673 -39.630161 56.865846 -37.518571 -47.850205 17.272631 -72.848066 57.215593 36.879876 15.859750 -0.510446 -6.194250 -3.245845 1.066367 -1.958611 -7.373125 -0.206206 2.211904 4.293564 0.004843 -0.017747 0.008806 -0.623941 -6.857519 -0.378340 1.132098 -1.106464 1.075922 -1.203224 2.915036 -0.020166 -0.004344 -0.019571 -0.008499 
9.846676 7.200311 83.200989 -5.071822 -1.703643 -109.980157 -0.403441 -2.839038 0.667742 -0.175655 -1.260744 0.295135 -0.175655 -1.260744 0.295137 -0.131128 -0.945644 0.220980 0.445420 -17.081384 -1.813599 0.193371 4.454672 -3.200841 4.798209 19.610086 -2.169846 51.349738 58.543880 43.642354 54.309426 13.614962 70.973848 -40.318521 46.421910 -12.890894 -6.722807 12.164279 -4.599663 -40.587983 57.387004 -38.153703 -48.081998 16.809717 -73.128165 56.413428 39.331480 16.010329 -0.505467 -6.178181 -3.228275 1.064640 -1.984612 -7.361865 -0.203767 2.215740 4.259150 0.002848 -0.016862 0.008550 -0.626454 -6.852509 -0.380242 1.135010 -1.129751 1.091107 -1.193780 2.931885 -0.000663 -0.009382 -0.021362 -0.008653 
9.842582 7.204395 83.201096 -5.072123 -1.709037 -110.012846 -0.395053 -2.812692 0.664073 -0.172437 -1.249219 0.294559 -0.172437 -1.249218 0.294558 -0.128720 -0.936998 0.220558 0.446694 -17.128612 -1.811330 0.197554 4.367045 -3.195629 4.947845 19.765703 -2.005320 51.672136 59.003142 43.693919 54.580093 13.361478 70.853124 -36.973914 47.341749 -11.732756 -6.822490 12.148028 -4.657113 -41.376207 57.922688 -38.654670 -48.313022 16.456267 -73.291966 55.423498 41.691885 16.277123 -0.513689 -6.155958 -3.202055 1.072104 -2.020224 -7.344805 -0.200820 2.223568 4.255296 0.001867 -0.016342 0.009377 -0.627700 -6.846544 -0.386902 1.133503 -1.147438 1.109368 -1.184607 2.943361 0.017347 -0.012696 -0.022459 -0.009395 
9.838555 7.209518 83.201813 -5.072294 -1.712705 -110.036076 -0.388106 -2.792831 0.657954 -0.169575 -1.240401 0.292540 -0.169575 -1.240401 0.292542 -0.126583 -0.930382 0.219057 0.453818 -17.167042 -1.812335 0.211223 4.295831 -3.194554 5.025322 19.778052 -1.923972 52.121556 59.429100 43.836301 54.862313 13.267161 70.728706 -33.538281 47.950387 -10.427944 -6.917523 12.160085 -4.715407 -42.225438 58.472273 -39.211283 -48.558062 16.189495 -73.314677 54.439193 43.890051 16.550814 -0.514216 -6.133953 -3.177697 1.074521 -2.053548 -7.334810 -0.200850 2.228567 4.227342 0.001028 -0.013967 0.008761 -0.629506 -6.838446 -0.387701 1.132212 -1.165224 1.108966 -1.177082 2.952763 0.037510 -0.013727 -0.022055 -0.009461 
9.835091 7.212208 83.203270 -5.078008 -1.717093 -110.049094 -0.376485 -2.775422 0.648430 -0.164962 -1.232497 0.288204 -0.164962 -1.232496 0.288205 -0.123135 -0.924451 0.215814 0.455398 -17.200366 -1.809971 0.215688 4.234039 -3.189247 5.024589 19.763316 -1.975856 52.669378 59.749621 44.031607 55.122683 13.322342 70.480797 -29.666209 48.346302 -8.747462 -6.998132 12.136596 -4.772932 -43.073423 58.983950 -39.763220 -48.759020 16.126843 -73.236901 52.972458 46.296183 16.591759 -0.518757 -6.117310 -3.154170 1.075344 -2.092869 -7.337958 -0.194758 2.236133 4.227657 0.000509 -0.009864 0.008834 -0.631818 -6.838700 -0.381096 1.136684 -1.176693 1.108306 -1.179192 2.958399 0.040676 -0.011422 -0.021209 -0.009311 
